HIERARCHY
ROOT root
{
	OFFSET 0.000000 0.000000 0.000000
	CHANNELS 6 Xposition Yposition Zposition Zrotation Yrotation Xrotation
	JOINT lhip
	{
		OFFSET 0.058581 -0.082280 -0.017664
		CHANNELS 3 Zrotation Yrotation Xrotation
		JOINT lknee
		{
			OFFSET 0.043451 -0.386469 0.008037
			CHANNELS 3 Zrotation Yrotation Xrotation
			JOINT lankle
			{
				OFFSET -0.014790 -0.426874 -0.037428
				CHANNELS 3 Zrotation Yrotation Xrotation
				JOINT ltoe
				{
					OFFSET 0.041054 -0.060286 0.122042
					CHANNELS 3 Zrotation Yrotation Xrotation
					End Site
					{
						OFFSET 0.000000 0.000000 0.000000
					}
				}
			}
		}
	}
	JOINT rhip
	{
		OFFSET -0.060310 -0.090513 -0.013543
		CHANNELS 3 Zrotation Yrotation Xrotation
		JOINT rknee
		{
			OFFSET -0.043257 -0.383688 -0.004843
			CHANNELS 3 Zrotation Yrotation Xrotation
			JOINT rankle
			{
				OFFSET 0.019056 -0.420046 -0.034562
				CHANNELS 3 Zrotation Yrotation Xrotation
				JOINT rtoe
				{
					OFFSET -0.034840 -0.062106 0.130323
					CHANNELS 3 Zrotation Yrotation Xrotation
					End Site
					{
						OFFSET 0.000000 0.000000 0.000000
					}
				}
			}
		}
	}
	JOINT lowerback
	{
		OFFSET 0.004439 0.124404 -0.038385
		CHANNELS 3 Zrotation Yrotation Xrotation
		JOINT upperback
		{
			OFFSET 0.004488 0.137956 0.026820
			CHANNELS 3 Zrotation Yrotation Xrotation
			JOINT chest
			{
				OFFSET -0.002265 0.056032 0.002855
				CHANNELS 3 Zrotation Yrotation Xrotation
				JOINT lowerneck
				{
					OFFSET -0.013390 0.211636 -0.033468
					CHANNELS 3 Zrotation Yrotation Xrotation
					JOINT upperneck
					{
						OFFSET 0.010113 0.088937 0.050410
						CHANNELS 3 Zrotation Yrotation Xrotation
						End Site
						{
							OFFSET 0.000000 0.000000 0.000000
						}
					}
				}
				JOINT lclavicle
				{
					OFFSET 0.071702 0.114000 -0.018898
					CHANNELS 3 Zrotation Yrotation Xrotation
					JOINT lshoulder
					{
						OFFSET 0.122921 0.045205 -0.019046
						CHANNELS 3 Zrotation Yrotation Xrotation
						JOINT lelbow
						{
							OFFSET 0.255332 -0.015649 -0.022946
							CHANNELS 3 Zrotation Yrotation Xrotation
							JOINT lwrist
							{
								OFFSET 0.265709 0.012698 -0.007375
								CHANNELS 3 Zrotation Yrotation Xrotation
								End Site
								{
									OFFSET 0.000000 0.000000 0.000000
								}
							}
						}
					}
				}
				JOINT rclavicle
				{
					OFFSET -0.082954 0.112472 -0.023707
					CHANNELS 3 Zrotation Yrotation Xrotation
					JOINT rshoulder
					{
						OFFSET -0.113228 0.046853 -0.008472
						CHANNELS 3 Zrotation Yrotation Xrotation
						JOINT relbow
						{
							OFFSET -0.260127 -0.014369 -0.031269
							CHANNELS 3 Zrotation Yrotation Xrotation
							JOINT rwrist
							{
								OFFSET -0.269108 0.006794 -0.006027
								CHANNELS 3 Zrotation Yrotation Xrotation
								End Site
								{
									OFFSET 0.000000 0.000000 0.000000
								}
							}
						}
					}
				}
			}
		}
	}
}
MOTION
Frames: 14
Frame Time: 0.033333
0.706574 0.511622 0.637597 69.904487 0.518786 42.536208 16.495024 2.439593 -34.348094 -13.411800 19.843904 90.155421 5.799355 4.429625 -17.539408 0.000000 -0.000000 0.000000 -9.305523 2.486633 -41.924425 3.765457 -10.959858 99.170626 -0.199464 -1.631175 -9.818907 0.000000 -0.000000 0.000000 -1.770306 -1.251720 33.166695 1.299215 -0.228241 5.471543 -2.701646 -1.000473 -0.147390 0.607079 -8.735161 19.346346 5.376645 -13.505857 -3.592484 -21.190880 3.685701 7.077118 -39.998150 -3.019681 6.377186 79.959207 -76.327123 -61.046251 -29.246038 -9.917200 2.718590 24.846453 1.535547 4.706186 42.725663 -2.566414 -0.478020 -50.462471 83.239765 -30.165233 26.069762 5.089257 3.487147 
0.706555 0.511266 0.637317 69.937382 0.557511 42.662346 16.512776 2.366871 -34.572447 -13.370281 19.847841 90.235451 5.781353 4.414551 -17.503478 0.000000 -0.000000 0.000000 -9.337103 2.452529 -42.087314 3.724507 -11.036224 99.219748 -0.236307 -1.603566 -9.813886 0.000000 -0.000000 0.000000 -1.816521 -1.241094 33.314230 1.329281 -0.281284 5.496271 -2.660838 -1.028384 -0.184958 0.465297 -8.651507 19.491123 5.311978 -13.431979 -3.698448 -21.267765 3.786572 7.043400 -39.892236 -2.943274 6.387601 81.265975 -76.307644 -62.368464 -29.180110 -9.944348 2.737225 24.889652 1.530400 4.675040 42.678603 -2.591589 -0.409937 -52.211722 83.327898 -31.909465 25.979146 5.150709 3.437636 
0.706418 0.510917 0.637003 69.934634 0.599770 42.848148 16.526887 2.259652 -34.886510 -13.295276 19.835970 90.334612 5.755509 4.417592 -17.456787 0.000000 -0.000000 0.000000 -9.343928 2.475272 -42.334191 3.655976 -11.119895 99.268561 -0.265628 -1.569823 -9.797701 0.000000 -0.000000 0.000000 -1.835150 -1.266013 33.549850 1.356748 -0.334385 5.462050 -2.627864 -1.061096 -0.278049 0.265209 -8.569504 19.727695 5.331876 -13.283164 -3.913099 -21.435820 3.943731 7.033016 -39.696811 -2.815338 6.382534 83.098871 -76.260737 -64.222442 -29.126754 -9.969476 2.720210 24.943391 1.516623 4.694034 42.607529 -2.588602 -0.347778 -54.613024 83.462251 -34.283498 25.896033 5.229660 3.373219 
0.706217 0.510445 0.636606 69.903828 0.656187 43.162254 16.521771 2.107586 -35.373057 -13.152280 19.814556 90.461494 5.716252 4.449723 -17.388828 0.000000 -0.000000 0.000000 -9.299290 2.587918 -42.735705 3.559667 -11.209775 99.306045 -0.296215 -1.568126 -9.760969 0.000000 -0.000000 0.000000 -1.803289 -1.348511 33.760688 1.360604 -0.389084 5.307481 -2.609806 -1.088110 -0.360803 0.017148 -8.439538 20.048514 5.400247 -13.072988 -4.159102 -21.599340 4.053518 7.088169 -39.534212 -2.588883 6.359604 85.222044 -76.137691 -66.305903 -29.013188 -10.008485 2.597070 24.964505 1.555512 4.815471 42.592800 -2.573352 -0.309066 -57.728864 83.597896 -37.291395 25.774821 5.298509 3.265887 
0.705807 0.509916 0.636113 69.832675 0.718361 43.628069 16.510215 1.918157 -36.078076 -12.930964 19.785567 90.612951 5.646031 4.476759 -17.271901 0.000000 -0.000000 0.000000 -9.194735 2.835663 -43.353870 3.402301 -11.305880 99.347257 -0.328591 -1.623734 -9.698768 0.000000 -0.000000 0.000000 -1.739885 -1.485817 33.977747 1.346931 -0.417861 4.969889 -2.585790 -1.095248 -0.428413 -0.266548 -8.278817 20.427053 5.474810 -12.905120 -4.416896 -21.742327 4.163219 7.057414 -39.429294 -2.291503 6.420824 87.195931 -75.991335 -68.263190 -28.914157 -10.030914 2.484613 24.968170 1.591067 4.926094 42.579429 -2.588982 -0.238345 -61.137477 83.726183 -40.631397 25.625272 5.380802 3.166400 
0.705292 0.509518 0.635679 69.812849 0.785481 44.004637 16.467666 1.678068 -36.709958 -12.743343 19.741254 90.751192 5.578579 4.493735 -17.129733 0.000000 -0.000000 0.000000 -9.092803 3.064859 -43.868535 3.254020 -11.363319 99.380522 -0.359222 -1.714430 -9.648554 0.000000 -0.000000 0.000000 -1.716724 -1.599717 34.278777 1.333291 -0.447201 4.517727 -2.538503 -1.100670 -0.388283 -0.475902 -8.175622 20.636768 5.539740 -12.781000 -4.569363 -21.799763 4.308332 6.925052 -39.371671 -2.088863 6.534064 88.601567 -75.948893 -69.639363 -28.791100 -10.065467 2.408335 24.958026 1.551226 4.895230 42.553928 -2.587020 -0.126262 -63.584298 83.851480 -43.087282 25.501350 5.455731 3.121155 
0.704348 0.509051 0.635031 69.876901 0.917032 44.425582 16.359145 1.226282 -37.574124 -12.525873 19.603711 90.957401 5.458267 4.495271 -16.852731 0.000000 -0.000000 0.000000 -8.902477 3.390117 -44.464046 3.064541 -11.376906 99.395783 -0.398763 -1.966089 -9.557906 0.000000 -0.000000 0.000000 -1.764991 -1.732584 34.990586 1.322132 -0.512023 3.723764 -2.404168 -1.124198 -0.205915 -0.678990 -8.072914 20.719323 5.634566 -12.536635 -4.683530 -21.854911 4.612491 6.591127 -39.228814 -1.887528 6.744753 90.534007 -76.012161 -71.513989 -28.486958 -10.169401 2.272604 24.969569 1.364235 4.692835 42.440546 -2.512965 0.111039 -67.076337 84.089607 -46.654403 25.276355 5.526168 3.054218 
0.703266 0.508877 0.634536 69.967600 1.044525 44.797657 16.181960 0.741086 -38.427464 -12.384831 19.359687 91.133481 5.348626 4.401185 -16.582020 0.000000 -0.000000 0.000000 -8.686359 3.773332 -44.982054 2.839474 -11.298834 99.359087 -0.382498 -2.278651 -9.396706 0.000000 -0.000000 0.000000 -1.836549 -1.849416 35.913996 1.313081 -0.590316 2.951305 -2.255978 -1.140570 -0.010516 -0.843801 -8.015451 20.705759 5.825513 -12.244921 -4.915699 -22.015499 4.992372 6.126641 -38.941831 -1.734481 7.007102 92.778092 -76.099802 -73.746235 -28.019446 -10.320277 2.110237 25.075089 1.105098 4.396603 42.192716 -2.413293 0.395665 -71.732144 84.334331 -51.398134 24.950276 5.587197 2.999383 
0.702143 0.509032 0.634362 69.971928 1.116012 45.307788 15.988978 0.353792 -39.364419 -12.247147 19.075268 91.285460 5.185656 4.269739 -16.678828 0.000000 -0.000000 0.000000 -8.497134 4.284292 -45.656165 2.485106 -11.174246 99.282073 -0.254514 -2.554277 -9.093094 0.000000 -0.000000 0.000000 -1.889632 -1.964301 36.874362 1.313695 -0.648020 2.250725 -2.131893 -1.093695 0.016519 -0.994112 -7.955236 20.714861 6.158587 -12.116652 -5.384334 -22.346633 5.411243 5.605914 -38.563817 -1.523033 7.329595 95.567966 -76.124725 -76.617684 -27.719685 -10.581204 2.018182 25.270057 0.906952 4.116656 41.797153 -2.510201 0.647863 -78.432314 84.533123 -58.130554 24.572197 5.743925 2.905167 
0.700869 0.509316 0.634364 69.873988 1.210828 46.285417 15.847409 0.009842 -40.773484 -11.859462 18.805306 91.589243 4.777718 4.152283 -17.544490 0.000000 -0.000000 0.000000 -8.279450 5.018634 -46.912316 1.776132 -11.008158 99.221554 0.114372 -2.790776 -8.540081 0.000000 -0.000000 0.000000 -1.888157 -2.123639 37.979019 1.368153 -0.685468 1.341966 -1.994667 -0.973332 -0.224481 -1.107376 -7.770411 20.761401 6.674545 -12.000123 -6.180566 -22.859100 5.931419 5.047040 -38.152804 -1.124735 7.834327 99.729751 -76.037725 -80.599540 -27.479420 -11.009548 2.025273 25.513325 0.798271 3.964227 41.212692 -2.982991 0.909485 -89.020904 84.556015 -68.540884 23.965409 6.144382 2.605604 
0.700193 0.509454 0.634444 69.799761 1.284671 47.271032 15.752340 -0.173772 -42.032741 -11.598263 18.707752 91.888498 4.568019 3.987806 -18.417589 0.000000 -0.000000 0.000000 -8.161858 5.483620 -48.150653 1.257435 -10.907559 99.215906 0.297544 -2.904848 -8.112440 0.000000 -0.000000 0.000000 -1.854691 -2.269319 38.719673 1.397046 -0.665023 0.616292 -1.937300 -0.887410 -0.428860 -1.074575 -7.681886 20.557538 7.056572 -12.063160 -6.710737 -23.163129 6.366478 4.610258 -37.946808 -0.825231 8.240537 103.174501 -75.962922 -83.700478 -27.080851 -11.238903 2.328837 25.628079 0.617450 3.937701 40.825130 -3.347882 1.058618 -97.325797 84.543786 -76.655659 23.274531 6.506470 2.370398 
0.699993 0.509534 0.634631 69.760120 1.379029 48.258432 15.676837 -0.304426 -43.224302 -11.414579 18.674464 92.089779 4.563057 3.932853 -19.250866 0.000000 -0.000000 0.000000 -8.044838 5.823703 -49.348973 0.958322 -10.880050 99.272013 0.302514 -3.098230 -7.967988 0.000000 -0.000000 0.000000 -1.824423 -2.421752 39.518116 1.394881 -0.597746 -0.146116 -1.892812 -0.804386 -0.535619 -0.912250 -7.737763 20.019558 7.425398 -12.188348 -7.158660 -23.354629 6.875760 4.143016 -37.797691 -0.591980 8.600278 106.674746 -75.985718 -86.905592 -26.511983 -11.527146 2.528510 25.661184 0.234758 3.876497 40.447225 -3.669754 1.132916 -106.383887 84.681264 -85.530990 22.410591 6.888336 2.197663 
0.700172 0.509386 0.635049 69.740238 1.540733 49.273266 15.626070 -0.332714 -44.379807 -11.345755 18.605742 92.155631 4.614825 4.002655 -19.875825 0.000000 -0.000000 0.000000 -7.929771 6.060163 -50.483130 0.710095 -10.980802 99.380415 0.298763 -3.492832 -8.309385 0.000000 -0.000000 0.000000 -1.728394 -2.614666 40.437616 1.338519 -0.482663 -1.126702 -1.847508 -0.729682 -0.455439 -0.711354 -7.902586 19.161257 7.826226 -12.313187 -7.596826 -23.555804 7.421624 3.661377 -37.577337 -0.351572 8.854089 110.291971 -76.072233 -90.462742 -25.745804 -11.849824 2.496972 25.636666 -0.206498 3.670828 40.115111 -4.113865 1.098584 -116.969085 84.883275 -96.165282 21.400705 7.249538 2.181593 
0.700779 0.509575 0.635634 69.745650 1.655559 50.507537 15.544213 -0.304265 -45.659546 -11.214085 18.554214 92.133850 4.631201 4.152873 -20.294970 0.000000 -0.000000 0.000000 -8.005168 6.134729 -51.844336 0.432556 -11.129581 99.675110 0.399280 -3.933509 -9.126639 0.000000 -0.000000 0.000000 -1.628635 -2.791999 41.337669 1.259403 -0.370197 -2.188352 -1.794669 -0.656920 -0.428207 -0.602758 -8.168747 18.240412 8.318587 -12.346602 -8.165174 -23.893243 7.990730 3.219937 -37.186979 0.057896 9.106893 113.963341 -76.129507 -94.192825 -24.553137 -12.271075 2.332041 25.572555 -0.685819 3.415350 39.729502 -4.754072 1.071700 -129.480554 85.015608 -108.820593 20.069796 7.822371 1.880555 
